solid 
 facet normal -1.000000e+00  0.000000e+00  0.000000e+00
   outer loop
     vertex -3.219995e+01 -3.219995e+01  5.420000e+01
     vertex -3.219995e+01  3.219995e+01 -1.020000e+01
     vertex -3.219995e+01 -3.219995e+01 -1.020000e+01
   endloop
 endfacet
 facet normal -1.000000e+00  0.000000e+00  0.000000e+00
   outer loop
     vertex -3.219995e+01 -3.219995e+01  5.420000e+01
     vertex -3.219995e+01  3.219995e+01  5.420000e+01
     vertex -3.219995e+01  3.219995e+01 -1.020000e+01
   endloop
 endfacet
 facet normal  0.000000e+00 -1.000000e+00 -0.000000e+00
   outer loop
     vertex  3.219995e+01 -3.219995e+01  5.420000e+01
     vertex -3.219995e+01 -3.219995e+01 -1.020000e+01
     vertex  3.219995e+01 -3.219995e+01 -1.020000e+01
   endloop
 endfacet
 facet normal -0.000000e+00 -1.000000e+00  0.000000e+00
   outer loop
     vertex  3.219995e+01 -3.219995e+01  5.420000e+01
     vertex -3.219995e+01 -3.219995e+01  5.420000e+01
     vertex -3.219995e+01 -3.219995e+01 -1.020000e+01
   endloop
 endfacet
 facet normal  0.000000e+00  0.000000e+00  1.000000e+00
   outer loop
     vertex  3.219995e+01  3.219995e+01  5.420000e+01
     vertex -3.219995e+01  3.219995e+01  5.420000e+01
     vertex -3.219995e+01 -3.219995e+01  5.420000e+01
   endloop
 endfacet
 facet normal  0.000000e+00  0.000000e+00  1.000000e+00
   outer loop
     vertex  3.219995e+01  3.219995e+01  5.420000e+01
     vertex -3.219995e+01 -3.219995e+01  5.420000e+01
     vertex  3.219995e+01 -3.219995e+01  5.420000e+01
   endloop
 endfacet
 facet normal  0.000000e+00  1.000000e+00  0.000000e+00
   outer loop
     vertex  3.219995e+01  3.219995e+01  5.420000e+01
     vertex  3.219995e+01  3.219995e+01 -1.020000e+01
     vertex -3.219995e+01  3.219995e+01 -1.020000e+01
   endloop
 endfacet
 facet normal  0.000000e+00  1.000000e+00  0.000000e+00
   outer loop
     vertex  3.219995e+01  3.219995e+01  5.420000e+01
     vertex -3.219995e+01  3.219995e+01 -1.020000e+01
     vertex -3.219995e+01  3.219995e+01  5.420000e+01
   endloop
 endfacet
 facet normal -0.000000e+00  0.000000e+00 -1.000000e+00
   outer loop
     vertex  3.219995e+01  3.219995e+01 -1.020000e+01
     vertex -3.219995e+01 -3.219995e+01 -1.020000e+01
     vertex -3.219995e+01  3.219995e+01 -1.020000e+01
   endloop
 endfacet
 facet normal  0.000000e+00 -0.000000e+00 -1.000000e+00
   outer loop
     vertex  3.219995e+01  3.219995e+01 -1.020000e+01
     vertex  3.219995e+01 -3.219995e+01 -1.020000e+01
     vertex -3.219995e+01 -3.219995e+01 -1.020000e+01
   endloop
 endfacet
 facet normal  1.000000e+00  0.000000e+00  0.000000e+00
   outer loop
     vertex  3.219995e+01 -3.219995e+01  5.420000e+01
     vertex  3.219995e+01 -3.219995e+01 -1.020000e+01
     vertex  3.219995e+01  3.219995e+01 -1.020000e+01
   endloop
 endfacet
 facet normal  1.000000e+00 -0.000000e+00  0.000000e+00
   outer loop
     vertex  3.219995e+01 -3.219995e+01  5.420000e+01
     vertex  3.219995e+01  3.219995e+01 -1.020000e+01
     vertex  3.219995e+01  3.219995e+01  5.420000e+01
   endloop
 endfacet
 facet normal  1.000000e+00  0.000000e+00  0.000000e+00
   outer loop
     vertex -2.719995e+01 -2.719995e+01  4.920000e+01
     vertex -2.719995e+01 -2.719995e+01 -5.199995e+00
     vertex -2.719995e+01  2.719995e+01 -5.199995e+00
   endloop
 endfacet
 facet normal  1.000000e+00 -0.000000e+00  0.000000e+00
   outer loop
     vertex -2.719995e+01 -2.719995e+01  4.920000e+01
     vertex -2.719995e+01  2.719995e+01 -5.199995e+00
     vertex -2.719995e+01  2.719995e+01  4.920000e+01
   endloop
 endfacet
 facet normal  0.000000e+00  1.000000e+00  0.000000e+00
   outer loop
     vertex  2.719995e+01 -2.719995e+01  4.920000e+01
     vertex  2.719995e+01 -2.719995e+01 -5.199995e+00
     vertex -2.719995e+01 -2.719995e+01 -5.199995e+00
   endloop
 endfacet
 facet normal  0.000000e+00  1.000000e+00  0.000000e+00
   outer loop
     vertex  2.719995e+01 -2.719995e+01  4.920000e+01
     vertex -2.719995e+01 -2.719995e+01 -5.199995e+00
     vertex -2.719995e+01 -2.719995e+01  4.920000e+01
   endloop
 endfacet
 facet normal -0.000000e+00  0.000000e+00 -1.000000e+00
   outer loop
     vertex  2.719995e+01  2.719995e+01  4.920000e+01
     vertex -2.719995e+01 -2.719995e+01  4.920000e+01
     vertex -2.719995e+01  2.719995e+01  4.920000e+01
   endloop
 endfacet
 facet normal  0.000000e+00 -0.000000e+00 -1.000000e+00
   outer loop
     vertex  2.719995e+01  2.719995e+01  4.920000e+01
     vertex  2.719995e+01 -2.719995e+01  4.920000e+01
     vertex -2.719995e+01 -2.719995e+01  4.920000e+01
   endloop
 endfacet
 facet normal  0.000000e+00 -1.000000e+00 -0.000000e+00
   outer loop
     vertex  2.719995e+01  2.719995e+01  4.920000e+01
     vertex -2.719995e+01  2.719995e+01 -5.199995e+00
     vertex  2.719995e+01  2.719995e+01 -5.199995e+00
   endloop
 endfacet
 facet normal -0.000000e+00 -1.000000e+00  0.000000e+00
   outer loop
     vertex  2.719995e+01  2.719995e+01  4.920000e+01
     vertex -2.719995e+01  2.719995e+01  4.920000e+01
     vertex -2.719995e+01  2.719995e+01 -5.199995e+00
   endloop
 endfacet
 facet normal  0.000000e+00  0.000000e+00  1.000000e+00
   outer loop
     vertex  2.719995e+01  2.719995e+01 -5.199995e+00
     vertex -2.719995e+01  2.719995e+01 -5.199995e+00
     vertex -2.719995e+01 -2.719995e+01 -5.199995e+00
   endloop
 endfacet
 facet normal  0.000000e+00  0.000000e+00  1.000000e+00
   outer loop
     vertex  2.719995e+01  2.719995e+01 -5.199995e+00
     vertex -2.719995e+01 -2.719995e+01 -5.199995e+00
     vertex  2.719995e+01 -2.719995e+01 -5.199995e+00
   endloop
 endfacet
 facet normal -1.000000e+00  0.000000e+00  0.000000e+00
   outer loop
     vertex  2.719995e+01 -2.719995e+01  4.920000e+01
     vertex  2.719995e+01  2.719995e+01 -5.199995e+00
     vertex  2.719995e+01 -2.719995e+01 -5.199995e+00
   endloop
 endfacet
 facet normal -1.000000e+00  0.000000e+00  0.000000e+00
   outer loop
     vertex  2.719995e+01 -2.719995e+01  4.920000e+01
     vertex  2.719995e+01  2.719995e+01  4.920000e+01
     vertex  2.719995e+01  2.719995e+01 -5.199995e+00
   endloop
 endfacet
endsolid
